<svg width="1075" height="314" viewBox="0 0 1075 314" fill="none" xmlns="http://www.w3.org/2000/svg">
<g clip-path="url(#clip0_701_226)">
<path d="M248.759 202.104V45.8097C248.759 12.1418 208.054 -4.71918 184.247 19.0876L27.9526 175.382C4.14584 199.189 21.0068 239.894 54.6747 239.894H210.969C231.84 239.894 248.759 222.975 248.759 202.104Z" fill="#8CECF2"/>
<path d="M310.85 264.195V107.901C310.85 74.2327 270.144 57.3718 246.337 81.1785L90.043 237.473C66.2362 261.279 83.0971 301.985 116.765 301.985H273.059C293.93 301.985 310.85 285.066 310.85 264.195Z" fill="#7047EA" fill-opacity="0.6"/>
<path d="M421.795 251.255C445.697 251.255 466.428 238.816 476.916 219.792L444.965 201.499C441.063 210.036 432.038 215.158 421.307 215.158C405.454 215.158 393.747 203.694 393.747 186.866C393.747 170.037 405.454 158.573 421.307 158.573C432.038 158.573 440.819 163.695 444.965 172.232L476.916 153.695C466.428 134.915 445.453 122.477 421.795 122.477C384.722 122.477 357.162 150.525 357.162 186.866C357.162 223.206 384.722 251.255 421.795 251.255ZM571.609 125.891V192.475C571.609 209.792 562.341 217.597 548.926 217.597C537.219 217.597 527.707 210.524 527.707 195.402V125.891H491.123V200.768C491.123 233.694 512.098 251.255 536.732 251.255C552.829 251.255 565.024 245.401 571.609 236.377V247.84H608.194V125.891H571.609ZM671.609 147.598V125.891H635.024V247.84H671.609V192.719C671.609 168.573 693.072 162.476 708.193 164.915V123.452C692.828 123.452 676.487 131.257 671.609 147.598ZM761.88 147.598V125.891H725.295V247.84H761.88V192.719C761.88 168.573 783.343 162.476 798.464 164.915V123.452C783.099 123.452 766.757 131.257 761.88 147.598ZM833.858 115.16C845.809 115.16 855.809 105.16 855.809 93.2089C855.809 81.2579 845.809 71.2581 833.858 71.2581C821.907 71.2581 811.907 81.2579 811.907 93.2089C811.907 105.16 821.907 115.16 833.858 115.16ZM815.566 247.84H852.15V125.891H815.566V247.84ZM878.922 247.84H915.506V69.7947H878.922V247.84ZM1019.11 125.891L996.179 200.524L969.107 125.891H928.864L977.399 242.23C972.034 257.108 963.985 262.474 946.912 262.474V296.619C981.058 298.327 1002.76 282.961 1016.42 244.182L1058.13 125.891H1019.11Z" fill="#081B4A"/>
</g>
<defs>
<clipPath id="clip0_701_226">
<rect width="1075" height="314" fill="white"/>
</clipPath>
</defs>
</svg>
